<?xml version="1.0" encoding="utf-8"?>
<!-- Generator: Adobe Illustrator 19.1.0, SVG Export Plug-In . SVG Version: 6.00 Build 0)  -->
<svg version="1.1" id="Layer_1" xmlns="http://www.w3.org/2000/svg" xmlns:xlink="http://www.w3.org/1999/xlink" x="0px" y="0px"
	 viewBox="-696 488.7 526.6 104.3" style="enable-background:new -696 488.7 526.6 104.3;" xml:space="preserve">
<style type="text/css">
	.st0{fill:#FFFFFF;}
	.st1{fill:#53B6D0;}
</style>
<g>
	<path class="st0" d="M-686.5,532.2h-8.5c-0.6,0-1-0.4-1-1v-12.6c0-0.6,0.4-1,1-1h8c0.6,0,1-0.4,1-1v-18.1c0-0.6,0.4-1,1-1h15.9
		c0.6,0,1,0.4,1,1v19.1h10.7c0.6,0,1,0.4,1,1v12.6c0,0.6-0.4,1-1,1h-9.7c-0.6,0-1,0.4-1,1v28.7c0,12.1,9.5,13.9,14.6,13.9
		c0.9,0,1.7-0.1,2.2-0.1c0.6-0.1,1.1,0.4,1.1,1v14c0,0.5-0.4,0.9-0.9,1c-1,0.1-2.7,0.3-4.8,0.3c-10.3,0-30.6-3-30.6-27.7V532.2
		L-686.5,532.2z"/>
	<path class="st0" d="M-532.1,515.8c21.1,0,32.6,15.5,32.6,34.9c0,2.2-0.4,6.8-0.4,6.8h-50.8c1.4,13,11,19.8,22.1,19.8
		c9.6,0,17.3-5.4,19.8-7.5c0.5-0.4,1.2-0.3,1.5,0.3l6.6,11c0.2,0.4,0.2,0.9-0.2,1.3c-2.6,2.3-13.1,10.6-29,10.6
		c-24.4,0-39.6-17.6-39.6-38.6C-569.5,531.7-554.2,515.8-532.1,515.8z M-518.3,544.9c-0.3-8.8-6.4-14.9-13.9-14.9
		c-9.4,0-16,5.6-18,14.9H-518.3z"/>
	<path class="st1" d="M-255,533.3v-0.8c0-5.3-7.9-7.4-12.6-7.4c-10.2,0-16.2,3.5-16.2,10.6c0,16.4,40.9,12.6,40.9,36.9
		c0,12.2-11,20.4-25.6,20.4c-16.4,0-25.4-9.5-27.5-12.1c-0.3-0.4-0.3-0.9,0-1.3l4.3-5.2c0.4-0.5,1.1-0.5,1.5,0
		c2.3,2.6,9.9,10.1,21.8,10.1c8.2,0,15.4-3.9,15.4-11.6c0-16-40.9-13.1-40.9-36.6c0-13.2,11.3-19.7,26-19.7
		c7.4,0,22.2,2.9,22.2,13.2v1.8c0,0.5-0.4,0.9-0.9,1L-255,533.3z"/>
	<path class="st1" d="M-200,516.5c20.1,0,30.6,15.5,30.6,33.6c0,1.7-0.3,4.9-0.3,4.9h-56c0.3,18.4,13.2,29,28.3,29
		c10.9,0,18.6-6,21.1-8.2c0.5-0.4,1.2-0.3,1.5,0.2l3.7,5.7c0.3,0.4,0.2,1-0.2,1.3c-2.5,2.2-12.3,9.9-26.5,9.9
		c-21.6,0-38.2-15.7-38.2-38.2C-236,530.9-219.6,516.5-200,516.5z M-179.6,547.3c-0.6-15.1-9.9-22.5-20.6-22.5
		c-12.1,0-22.7,7.9-25.1,22.5H-179.6z"/>
	<path class="st0" d="M-644.8,507.5v-17.8c0-0.6,0.4-1,1-1h7.6c6.8,0,9.8,3,9.8,9.7v25.8c0,3.6-0.3,6.2-0.3,6.2h0.3
		c3.5-7.1,12.6-14.6,25.3-14.6c16.5,0,25.7,8.5,25.7,28v27.4v1.3v18.6h-8.6c-6.8,0-9.7-2.9-9.7-9.8v-33.7c0-9-2.5-15-11.7-15
		c-9.7,0-17.2,6.4-19.9,15.3c-0.9,2.9-1.2,6.1-1.2,9.5v32.8c0,0.6-0.4,1-1,1h-16.3c-0.6,0-1-0.4-1-1v-81.9L-644.8,507.5
		L-644.8,507.5"/>
	<path class="st1" d="M-368.8,530v-10.8c0-0.6,0.4-1,1-1h0.7c6.2,0,8.3,2.6,8.3,8.6V562c0,11.5,1.9,21.7,16,21.7
		c16.5,0,26.9-14.7,26.9-30.5v-33.9c0-0.6,0.4-1,1-1h7.9c0.6,0,1,0.4,1,1v60.2v11.7h-0.8c-6.1,0-8.9-2.6-8.9-8.2v-3.3c0-2.9,0-4,0-4
		h-0.3c-2.9,7.1-12.2,17.2-28.1,17.2c-17.3,0-24.5-9.3-24.5-28.3v-32V530H-368.8"/>
	<g>
		<path class="st1" d="M-489.3,532.3v58.4c0,0.6,0.4,1,1,1h7.9c0.6,0,1-0.4,1-1v-33.4c0-3.4,0.3-6.7,1.2-9.7
			c3.1-11.1,11.9-21.4,23.8-21.4c13.8,0,15.4,10.7,15.4,21.7v43c0,0.6,0.4,1,1,1h7.9c0.6,0,1-0.4,1-1v-33.6c0-4,0.3-7.4,1.3-10.6
			c3-10.7,12.1-20.6,23.1-20.6c13.4,0,15.8,9.8,15.8,21.7v35.1c0,6.3-0.3,8.9,5.9,8.9h3.1c0.6,0,1-0.4,1-1V580v-0.8v-33.9
			c0-18-6.6-28.3-24.3-28.3c-12.3,0-23,8.4-26.9,18.3h-0.3c-2.2-12.1-9.2-18.3-22.7-18.3c-11.3,0-22.8,8.5-26.4,18.4h-0.3
			c0,0,0.3-2.3,0.3-5.2v-3.3c0-5.6,0.2-8.2-5.9-8.2h-4L-489.3,532.3z"/>
		<path class="st1" d="M-380.1,591.8c-6.2,0-8.9-2.6-8.9-8.9v-35.1c0-11.9-2.5-21.7-15.8-21.7c-11,0-20.1,9.9-23.1,20.6
			c-1,3.2-1.3,6.6-1.3,10.6v34.5h-9.9v-44c0-11-1.6-21.7-15.4-21.7c-11.9,0-20.7,10.3-23.8,21.4c-0.9,3-1.2,6.4-1.2,9.7v34.5h-9.9
			v-61.2l0,0c0-2-1.2-3.2-3.2-3.2h-6.1v-8.6h10.2c6.1,0,8.9,2.6,8.9,8.2v3.3c0,2.9-0.3,5.2-0.3,5.2h0.3c3.6-9.9,15.1-18.4,26.4-18.4
			c13.5,0,20.4,6.2,22.7,18.3h0.3c3.9-9.9,14.5-18.3,26.9-18.3c17.7,0,24.3,10.3,24.3,28.3V580"/>
	</g>
</g>
</svg>
